<?xml version="1.0" encoding="utf-8"?>
<svg version="1.1" xmlns="http://www.w3.org/2000/svg" xmlns:xlink="http://www.w3.org/1999/xlink"
	x="0px" y="0px"
	viewBox="0 0 2200 2200" style="enable-background:new 0 0 2200 2200;" xml:space="preserve">
	<defs>
		<clipPath id="clipPath">
			<circle cx="1100" cy="1100" r="1100"/>
		</clipPath>
	</defs>
	<g id="background">
		<circle style="fill:#FFFFFF;" cx="1100" cy="1100" r="1100"/>
	</g>
	<g id="Objects">
		<g transform="translate(1100, 1100) scale(2.6) translate(-616, -1573) rotate(35, 616, 1573)">
		 <path d="M1014,1573c0,219.53-177.97,397.5-397.5,397.5S219,1792.53,219,1573s177.97-397.5,397.5-397.5
		c35.04,0,69.02,4.53,101.39,13.04c5.8,1.53,11.55,3.18,17.25,4.97c-13.79-2.54-27.88-4.2-42.21-4.93
		c-1.13-0.06-2.26-0.11-3.39-0.15c-4.47-0.19-8.97-0.28-13.49-0.28c-179.66,0-325.3,145.64-325.3,325.3s145.64,325.3,325.3,325.3
		s325.3-145.64,325.3-325.3c0-4.52-0.09-9.02-0.28-13.49c-0.04-1.13-0.09-2.26-0.15-3.39c-0.73-14.33-2.39-28.42-4.93-42.21
		c1.79,5.7,3.44,11.45,4.97,17.25C1009.47,1503.98,1014,1537.96,1014,1573z"/>
		</g>
	</g>
</svg>